<!-- Generated by IcoMoon.io -->
<svg version="1.1" xmlns="http://www.w3.org/2000/svg" width="32" height="32" viewBox="0 0 32 32">
<path d="M31.024 21.497c-0.163-0.149-0.401-0.178-0.595-0.075-5.562 2.95-12.387 0.988-15.537-4.467s-1.437-12.346 3.899-15.689c0.186-0.117 0.28-0.338 0.232-0.553s-0.224-0.377-0.442-0.405c-3.457-0.444-6.881 0.243-9.903 1.988-3.655 2.109-6.27 5.517-7.362 9.594s-0.532 8.335 1.579 11.991c2.11 3.655 5.518 6.27 9.595 7.363 1.361 0.365 2.743 0.545 4.116 0.545 2.738 0 5.441-0.718 7.875-2.124 3.021-1.744 5.329-4.366 6.673-7.582 0.085-0.203 0.033-0.437-0.129-0.586z"></path>
</svg>
