<svg xmlns="http://www.w3.org/2000/svg" >
<symbol id="arrow-back" viewBox="0 0 1024 1024">
<title>arrow-back</title>
<path d="M895.996 490.667h-622.334l225.833 225.836-60.331 60.331-328.83-328.833 328.83-328.832 60.331 60.331-225.833 225.835h622.334v85.333z" />
</symbol>
<symbol id="chevron-down" viewBox="0 0 1024 1024">
<title>chevron-down</title>
<path d="M695.168 289.833l-183.168 183.169-183.169-183.169-60.331 60.331 243.5 243.5 243.499-243.5-60.331-60.331z" />
</symbol>
<symbol id="chevron-left" viewBox="0 0 1024 1024">
<title>chevron-left</title>
<path d="M567.164 691.5l-243.497-243.5 243.497-243.499 60.331 60.331-183.168 183.168 183.168 183.169-60.331 60.331z" />
</symbol>
<symbol id="chevron-right" viewBox="0 0 1024 1024">
<title>chevron-right</title>
<path d="M414.164 236.817l243.5 243.499-243.5 243.497-60.331-60.331 183.169-183.166-183.169-183.168 60.331-60.331z" />
</symbol>
<symbol id="chevron-up" viewBox="0 0 1024 1024">
<title>chevron-up</title>
<path d="M268.5 545.83l60.331 60.331 183.169-183.168 183.168 183.168 60.331-60.331-243.499-243.497-243.5 243.497z" />
</symbol>
<symbol id="close" viewBox="0 0 1024 1024">
<title>close</title>
<path d="M690.859 689.312l-181.035-180.99-180.993 180.99-60.331-60.331 180.993-180.99-180.993-180.992 60.331-60.331 180.993 180.992 181.035-180.992 60.331 60.331-180.992 180.992 180.992 180.99-60.331 60.331z" />
</symbol>
<symbol id="Company-Logo" viewBox="0 0 159 35" xmlns="http://www.w3.org/2000/svg">
  <path d="M16.6901 0.138163C26.262 -0.754971 34.7434 6.2861 35.6267 15.8589C36.51 25.4321 29.4604 33.9058 19.8867 34.7793C10.3267 35.6519 1.86742 28.6145 0.985354 19.0553C0.103384 9.49639 7.13198 1.0299 16.6901 0.138163ZM20.161 32.9383C28.7063 31.9123 34.8001 24.1503 33.769 15.606C32.7379 7.06137 24.9724 0.972323 16.4284 2.0089C7.89209 3.04446 1.80974 10.8014 2.8399 19.3381C3.87015 27.8759 11.6232 33.9625 20.161 32.9383Z" fill="currentColor" />
  <path d="M25.1137 8.40577L27.116 8.39209C27.1549 14.1708 27.1577 19.9499 27.1246 25.7286L25.0543 25.7547L25.0512 14.8968L25.0417 11.9235C23.8853 14.1182 22.5724 16.228 21.3215 18.3694C20.5287 19.7266 19.7923 21.2839 18.8112 22.5044C18.5771 22.5899 18.3233 22.5965 18.0794 22.5406C17.9997 22.522 17.8328 22.4597 17.7723 22.4113C17.2431 21.989 12.2667 13.2471 11.472 11.9214C11.676 13.4934 11.5478 15.2087 11.5469 16.7956L11.5409 25.7119L9.42383 25.7193C9.48941 19.9499 9.38587 14.1764 9.44122 8.40567L11.7466 8.41767C12.7717 10.2505 13.8714 12.0451 14.9344 13.8564C16.0641 15.7813 17.1642 17.7294 18.3644 19.6113C19.5854 17.3815 20.9508 15.2203 22.2634 13.0421C23.1931 11.4994 24.072 9.87473 25.1137 8.40577Z" fill="currentColor" />
  <path d="M131.122 12.5237C131.531 12.4962 131.95 12.4854 132.36 12.4927C133.886 12.5199 135.445 13.3361 136.49 14.4182C137.792 15.7665 138.397 17.647 138.353 19.5019C138.309 21.3894 137.602 23.1839 136.213 24.4788C134.981 25.6258 133.403 26.2397 131.716 26.1765C129.784 26.1039 128.503 25.2899 127.207 23.9067C127.157 24.6983 127.172 25.4993 127.164 26.2928C127.173 27.8686 127.171 29.4444 127.158 31.0212C126.423 31.0938 125.682 31.0873 124.948 31.0008C125.068 28.5607 124.962 26.0621 124.963 23.6155C124.963 19.9764 125.021 16.3275 124.939 12.6895L127.125 12.681C127.082 13.4928 127.092 14.3129 127.08 15.1261C128.265 13.6481 129.253 12.9356 131.122 12.5237ZM132.069 24.2239C133.428 23.969 134.481 23.4146 135.279 22.2415C136.059 21.0741 136.339 19.6424 136.055 18.2675C135.812 17.0422 135.086 15.8841 134.019 15.2145C133.179 14.6874 132.27 14.5426 131.3 14.57C129.953 14.8246 128.861 15.3044 128.053 16.4786C127.292 17.5847 126.965 19.1596 127.222 20.475C127.466 21.7383 128.214 22.8471 129.296 23.5429C130.159 24.0853 131.069 24.2416 132.069 24.2239Z" fill="currentColor" />
  <path d="M90.3299 7.04053C90.6862 7.40667 90.7969 8.37284 91.009 8.89024C88.715 9.85305 85.3893 9.65509 83.5447 11.4172C82.4414 12.4713 82.1781 13.9288 82.1549 15.3815C83.1419 14.1624 84.2237 13.1746 85.8424 12.9041C87.4778 12.6306 89.2108 12.947 90.5522 13.9452C91.9932 15.0179 92.7951 16.5729 93.036 18.3342C93.3123 20.3585 92.8081 22.2673 91.5662 23.8841C90.6667 24.8823 89.6201 25.62 88.302 25.9428C86.6331 26.3521 84.7279 26.14 83.2572 25.2274C81.58 24.1855 80.6144 22.4664 80.1958 20.5752C79.5706 17.7491 79.6934 13.5255 81.3223 11.017C82.7586 8.80401 84.9279 8.36586 87.3382 7.79264C88.3392 7.55459 89.3262 7.26165 90.3299 7.04053ZM86.5159 24.2357C87.9364 24.0255 88.9931 23.685 89.8759 22.4645C90.742 21.2682 91.022 19.7575 90.7532 18.3194C90.5364 17.1588 89.9252 16.0973 88.9289 15.4405C88.3187 15.0371 87.6108 14.8059 86.8796 14.7713C85.4972 14.9258 84.3605 15.2121 83.4405 16.3522C82.5772 17.4226 82.2079 18.8682 82.3986 20.2245C82.5725 21.4617 83.2488 22.6525 84.2647 23.3902C84.9521 23.8888 85.6898 24.1074 86.5159 24.2357Z" fill="currentColor" />
  <path d="M59.2475 7.92097C60.0551 7.83995 60.8953 7.87874 61.7075 7.87306C61.5979 13.8191 61.7287 19.7826 61.6945 25.7315L59.5532 25.7101L59.5565 15.1914C59.5507 13.9863 59.5256 12.7786 59.5994 11.5752C57.626 15.2199 55.8455 19.0244 53.6841 22.5585L52.2927 22.551C50.1637 19.0607 48.392 15.2997 46.4233 11.7131C46.5003 13.3579 46.4482 15.0281 46.4493 16.6754L46.4541 25.7325C45.7402 25.7139 45.0291 25.7604 44.3143 25.7269L44.3153 14.892C44.3168 12.5629 44.2712 10.2192 44.3989 7.89334L46.7813 7.89464C47.4585 9.05578 48.0341 10.3 48.6494 11.4961C50.0767 14.2708 51.4896 17.0756 53.0294 19.7891C55.2926 15.9518 57.084 11.8185 59.2475 7.92097Z" fill="currentColor" />
  <path d="M70.2607 12.5278C70.5875 12.5103 70.9146 12.4979 71.2417 12.4907C72.956 12.4626 74.6643 12.9303 75.9002 14.1726C77.5536 15.8344 77.7181 17.9287 77.7184 20.1417C74.1499 20.1873 70.5764 20.1389 67.0071 20.1547C67.1172 20.7436 67.228 21.3073 67.5082 21.845C68.066 22.9204 69.0342 23.7251 70.1934 24.0767C71.5809 24.4972 72.9765 24.2506 74.2246 23.5623C74.6433 23.2776 75.0262 22.9446 75.4159 22.6227C75.976 22.9427 76.5429 23.2097 77.135 23.4655C76.2543 24.6534 75.1191 25.5195 73.6823 25.913C71.8428 26.4163 69.6007 26.219 67.9436 25.2441C66.4907 24.3874 65.4482 22.9771 65.0557 21.3371C64.5662 19.365 64.8396 17.2079 65.9097 15.4733C66.9412 13.8012 68.3886 12.975 70.2607 12.5278ZM67.03 18.4747C68.7976 18.4608 70.5652 18.4552 72.3329 18.4598L75.6369 18.4617C75.3147 17.1058 74.9918 15.8488 73.73 15.055C72.8069 14.4742 71.6874 14.3857 70.6249 14.4743C69.4775 14.7392 68.5103 15.2614 67.8555 16.2727C67.4122 16.9575 67.2156 17.6933 67.03 18.4747Z" fill="currentColor" />
  <path d="M114.654 12.524C114.975 12.508 115.295 12.4973 115.616 12.4919C117.325 12.4734 119.034 12.9807 120.255 14.2283C121.86 15.8704 122.008 17.966 122.001 20.1335C118.447 20.1874 114.885 20.1446 111.33 20.153C111.377 20.8014 111.491 21.3596 111.794 21.9428C112.354 23.0228 113.284 23.7373 114.444 24.0768C115.995 24.5326 117.407 24.1959 118.779 23.4349C119.113 23.2042 119.411 22.9224 119.715 22.6526C120.279 22.9559 120.85 23.2015 121.444 23.4377C120.514 24.6592 119.358 25.5448 117.857 25.9252C115.99 26.3987 113.846 26.2173 112.18 25.2117C110.701 24.3187 109.687 22.847 109.298 21.1707C108.855 19.2563 109.164 17.0544 110.234 15.3946C111.304 13.7352 112.767 12.9321 114.654 12.524ZM111.31 18.4702C113.003 18.4655 114.697 18.4423 116.389 18.46L119.975 18.4581C119.603 17.0639 119.213 15.7056 117.864 14.9387C117.029 14.4632 116.011 14.3822 115.068 14.4776C113.949 14.6628 113.003 15.0838 112.308 16.0194C111.757 16.7603 111.523 17.5883 111.31 18.4702Z" fill="currentColor" />
  <path d="M151.559 12.7119C153.724 12.6104 155.92 12.684 158.089 12.6909C157.978 17.025 158.077 21.3884 158.075 25.7261L155.845 25.7019L155.843 21.2488C154.778 21.2423 153.375 21.0339 152.359 21.2758C152.042 21.3511 151.985 21.5112 151.808 21.7577C151.055 23.0926 150.218 24.381 149.462 25.7168C148.62 25.7354 147.776 25.7382 146.933 25.7233C147.758 24.1745 148.878 22.2033 149.97 20.8618C149.84 20.7986 149.712 20.7316 149.585 20.6628C148.633 20.1372 147.904 19.2916 147.625 18.2311C147.335 17.1256 147.493 15.8638 148.085 14.8822C148.882 13.5579 150.13 13.0488 151.559 12.7119ZM153.846 19.38C154.504 19.3744 155.176 19.3948 155.833 19.3474C155.824 17.806 155.828 16.2645 155.845 14.7231C154.537 14.7184 153.211 14.6833 151.905 14.7549C151.081 15.0131 150.437 15.2916 149.993 16.0859C149.698 16.6139 149.619 17.3105 149.818 17.8841C150.01 18.4395 150.456 18.8292 150.981 19.0665C151.866 19.4665 152.897 19.3883 153.846 19.38Z" fill="currentColor" />
  <path d="M97.5638 12.831C100.388 12.7291 103.236 12.7952 106.064 12.79L106.05 25.7239C105.346 25.7137 104.639 25.6839 103.941 25.7797L103.93 14.8237L102.732 14.872C101.663 14.8192 100.569 14.8896 99.4978 14.9148C99.468 17.5219 99.4578 22.9266 97.6317 24.856C96.721 25.8179 95.6921 25.9164 94.4484 25.9267C94.4391 25.2467 94.4028 24.575 94.3535 23.8969C94.6782 23.8671 95.0224 23.8448 95.3387 23.7648C97.3043 23.269 97.3387 16.7739 97.388 15.1362C97.4075 14.498 97.2661 13.3505 97.5638 12.831Z" fill="currentColor" />
  <path d="M143.372 12.7358L143.661 12.7188C143.695 12.7657 143.745 12.8049 143.766 12.8597C143.863 13.1141 143.763 24.4126 143.764 25.7187L141.87 25.7317L141.731 25.7038C141.427 25.1559 141.732 14.3891 141.637 12.7615C142.215 12.7687 142.794 12.7493 143.372 12.7358Z" fill="currentColor" />
  <path d="M141.597 7.85807L143.775 7.85156C143.752 8.62469 143.77 9.39848 143.781 10.1717L141.538 10.1886C141.571 9.41215 141.59 8.63521 141.597 7.85807Z" fill="currentColor" />
</symbol>
<symbol id="Company-Logo-footer-black" viewBox="0 0 1024 1024">
<title>Company-Logo-footer-black</title>
<path d="M102.801 338.14c62.36-5.819 117.615 40.053 123.37 102.419 5.755 62.368-40.172 117.573-102.545 123.265-62.282 5.684-117.393-40.164-123.14-102.44s40.045-117.434 102.315-123.243zM125.414 551.829c55.671-6.684 95.372-57.253 88.654-112.918-6.717-55.667-57.309-95.337-112.971-88.583-55.613 6.747-95.239 57.282-88.528 112.897 6.712 55.623 57.222 95.276 112.845 88.604zM157.687 392.003l13.044-0.089c0.254 37.648 0.272 75.297 0.057 112.945l-13.489 0.171-0.019-70.738-0.062-19.37c-7.535 14.298-16.088 28.043-24.237 41.995-5.166 8.842-9.962 18.987-16.354 26.939-1.525 0.558-3.179 0.599-4.767 0.236-0.519-0.121-1.607-0.527-2.001-0.843-3.448-2.751-35.868-59.704-41.046-68.341 1.329 10.242 0.494 21.416 0.488 31.755l-0.039 58.088-13.792 0.048c0.427-37.587-0.247-75.2 0.113-112.796l15.019 0.078c6.679 11.941 13.843 23.632 20.769 35.433 7.36 12.54 14.526 25.232 22.346 37.492 7.955-14.526 16.851-28.606 25.402-42.797 6.057-10.051 11.784-20.635 18.57-30.205zM848.308 418.827c2.661-0.179 5.394-0.249 8.061-0.202 9.945 0.177 20.103 5.495 26.908 12.545 8.485 8.784 12.425 21.035 12.14 33.12-0.286 12.296-4.898 23.987-13.945 32.423-8.024 7.473-18.303 11.473-29.297 11.060-12.588-0.473-20.933-5.776-29.375-14.787-0.327 5.157-0.23 10.375-0.279 15.545 0.054 10.267 0.043 20.533-0.042 30.806-4.789 0.473-9.613 0.43-14.394-0.134 0.783-15.896 0.091-32.175 0.097-48.114 0-23.709 0.375-47.48-0.158-71.181l14.242-0.056c-0.279 5.289-0.212 10.632-0.291 15.93 7.714-9.629 14.151-14.271 26.332-16.955zM854.479 495.053c8.854-1.661 15.714-5.273 20.909-12.915 5.085-7.607 6.909-16.934 5.061-25.891-1.588-7.983-6.316-15.528-13.266-19.89-5.473-3.434-11.394-4.377-17.715-4.199-8.776 1.659-15.891 4.784-21.151 12.434-4.957 7.206-7.091 17.466-5.418 26.036 1.588 8.23 6.468 15.455 13.516 19.987 5.618 3.533 11.551 4.552 18.067 4.437zM582.556 383.111c2.321 2.385 3.043 8.68 4.425 12.051-14.945 6.273-36.611 4.983-48.63 16.463-7.187 6.868-8.902 16.363-9.054 25.827 6.43-7.942 13.479-14.378 24.024-16.14 10.655-1.782 21.945 0.279 30.685 6.783 9.388 6.988 14.612 17.119 16.182 28.595 1.799 13.187-1.485 25.623-9.576 36.156-5.861 6.503-12.679 11.31-21.266 13.412-10.872 2.666-23.284 1.284-32.865-4.66-10.928-6.789-17.218-17.988-19.945-30.309-4.073-18.412-3.273-45.928 7.339-62.271 9.358-14.417 23.491-17.272 39.194-21.006 6.521-1.551 12.95-3.459 19.49-4.9zM557.708 495.136c9.254-1.369 16.139-3.588 21.891-11.538 5.642-7.794 7.466-17.637 5.714-27.006-1.412-7.561-5.393-14.477-11.885-18.756-3.975-2.628-8.588-4.134-13.351-4.36-9.005 1.007-16.412 2.872-22.405 10.299-5.624 6.974-8.030 16.391-6.787 25.228 1.133 8.061 5.54 15.818 12.158 20.624 4.478 3.248 9.284 4.672 14.666 5.508zM380.053 388.847c5.262-0.528 10.736-0.275 16.027-0.312-0.714 38.738 0.138 77.589-0.085 116.346l-13.95-0.14 0.021-68.528c-0.038-7.851-0.202-15.719 0.279-23.559-12.857 23.745-24.456 48.531-38.538 71.555l-9.064-0.049c-13.871-22.739-25.413-47.241-38.239-70.607 0.502 10.716 0.163 21.597 0.171 32.328l0.030 59.005c-4.651-0.12-9.283 0.182-13.94-0.035l0.006-70.589c0.010-15.174-0.287-30.442 0.545-45.595l15.521 0.008c4.412 7.565 8.162 15.671 12.17 23.463 9.299 18.077 18.504 36.349 28.535 54.028 14.744-25 26.415-51.927 40.51-77.319zM451.808 418.854c2.129-0.114 4.259-0.194 6.391-0.242 11.169-0.183 22.298 2.864 30.35 10.957 10.772 10.826 11.844 24.47 11.846 38.888-23.249 0.297-46.529-0.019-69.782 0.085 0.717 3.836 1.439 7.509 3.264 11.011 3.635 7.006 9.942 12.249 17.494 14.54 9.039 2.74 18.131 1.134 26.262-3.351 2.728-1.855 5.222-4.024 7.761-6.121 3.65 2.085 7.344 3.824 11.2 5.492-5.737 7.738-13.132 13.382-22.493 15.944-11.985 3.279-26.592 1.995-37.387-4.358-9.466-5.581-16.258-14.768-18.814-25.453-3.19-12.848-1.408-26.901 5.564-38.202 6.719-10.893 16.149-16.276 28.346-19.189zM430.76 457.598c11.516-0.091 23.031-0.128 34.548-0.097l21.524 0.013c-2.099-8.834-4.202-17.023-12.422-22.194-6.015-3.784-13.308-4.36-20.23-3.783-7.475 1.726-13.777 5.128-18.043 11.717-2.889 4.461-4.169 9.255-5.378 14.346zM741.018 418.83c2.091-0.104 4.176-0.174 6.267-0.209 11.139-0.121 22.271 3.184 30.223 11.312 10.46 10.699 11.423 24.351 11.375 38.472-23.151 0.351-46.357 0.073-69.519 0.128 0.308 4.224 1.048 7.86 3.024 11.66 3.648 7.037 9.703 11.691 17.26 13.904 10.109 2.97 19.309 0.775 28.242-4.182 2.182-1.503 4.121-3.34 6.102-5.097 3.672 1.976 7.394 3.575 11.26 5.115-6.054 7.958-13.588 13.727-23.369 16.206-12.163 3.085-26.127 1.903-36.98-4.648-9.637-5.818-16.242-15.406-18.776-26.327-2.891-12.473-0.872-26.817 6.097-37.63 6.97-10.811 16.503-16.043 28.793-18.701zM719.236 457.567c11.024-0.029 22.060-0.181 33.084-0.066l23.364-0.013c-2.425-9.083-4.963-17.932-13.752-22.928-5.442-3.098-12.072-3.625-18.217-3.004-7.291 1.207-13.455 3.95-17.982 10.045-3.588 4.827-5.115 10.222-6.497 15.966zM981.46 420.057c14.102-0.661 28.412-0.182 42.539-0.137-0.722 28.236-0.080 56.663-0.091 84.922l-14.527-0.157-0.013-29.012c-6.939-0.042-16.078-1.399-22.696 0.176-2.067 0.492-2.436 1.533-3.594 3.14-4.903 8.696-10.358 17.089-15.279 25.793-5.49 0.12-10.987 0.139-16.478 0.042 5.375-10.091 12.672-22.933 19.787-31.672-0.848-0.412-1.685-0.848-2.509-1.297-6.206-3.425-10.95-8.933-12.77-15.842-1.89-7.203-0.86-15.423 2.995-21.818 5.193-8.628 13.327-11.945 22.635-14.139zM996.356 463.498c4.292-0.037 8.667 0.097 12.945-0.212-0.054-10.042-0.030-20.084 0.080-30.126-8.522-0.031-17.158-0.259-25.667 0.207-5.369 1.682-9.562 3.496-12.46 8.671-1.922 3.439-2.436 7.978-1.139 11.715 1.254 3.619 4.157 6.157 7.575 7.703 5.77 2.606 12.485 2.096 18.666 2.042zM629.693 420.836c18.399-0.664 36.956-0.233 55.374-0.267l-0.085 84.263c-4.588-0.067-9.195-0.26-13.746 0.364l-0.067-71.378-7.805 0.315c-6.97-0.344-14.091 0.115-21.073 0.279-0.193 16.985-0.26 52.197-12.157 64.765-5.934 6.267-12.637 6.909-20.739 6.976-0.061-4.43-0.297-8.805-0.618-13.224 2.115-0.195 4.358-0.34 6.418-0.861 12.805-3.23 13.029-45.545 13.351-56.214 0.126-4.158-0.794-11.634 1.145-15.019zM928.123 420.21l1.885-0.111c0.224 0.306 0.545 0.561 0.684 0.918 0.631 1.657-0.018 75.267-0.011 83.775l-12.34 0.086-0.909-0.182c-1.976-3.57 0.006-73.714-0.612-84.318 3.77 0.047 7.54-0.080 11.303-0.168zM916.555 388.431l14.193-0.042c-0.15 5.037-0.035 10.078 0.037 15.115l-14.612 0.11c0.212-5.059 0.339-10.12 0.382-15.183z" />
</symbol>
<symbol id="Company-Logo-footer-white" viewBox="0 0 1024 1024">
<title>Company-Logo-footer-white</title>
<path d="M102.801 338.146c62.36-5.819 117.615 40.053 123.37 102.419 5.755 62.368-40.172 117.573-102.545 123.263-62.282 5.685-117.393-40.162-123.14-102.439s40.045-117.434 102.315-123.243zM125.414 551.835c55.671-6.685 95.372-57.253 88.654-112.918-6.717-55.667-57.309-95.337-112.971-88.583-55.613 6.747-95.239 57.282-88.528 112.898 6.712 55.623 57.222 95.276 112.845 88.604zM157.687 392.009l13.044-0.089c0.254 37.648 0.272 75.297 0.057 112.945l-13.489 0.169-0.019-70.737-0.062-19.37c-7.535 14.298-16.088 28.043-24.237 41.994-5.166 8.843-9.962 18.988-16.354 26.939-1.525 0.559-3.179 0.6-4.767 0.236-0.519-0.12-1.607-0.527-2.001-0.842-3.448-2.751-35.868-59.704-41.046-68.341 1.329 10.242 0.494 21.417 0.488 31.755l-0.039 58.088-13.792 0.048c0.427-37.587-0.247-75.2 0.113-112.796l15.019 0.078c6.679 11.941 13.843 23.632 20.769 35.433 7.36 12.54 14.526 25.232 22.346 37.492 7.955-14.527 16.851-28.606 25.402-42.797 6.057-10.051 11.784-20.635 18.57-30.205zM848.308 418.833c2.661-0.179 5.394-0.249 8.061-0.202 9.945 0.178 20.103 5.495 26.908 12.545 8.485 8.784 12.425 21.035 12.14 33.119-0.286 12.297-4.898 23.988-13.945 32.424-8.024 7.473-18.303 11.473-29.297 11.060-12.588-0.473-20.933-5.776-29.375-14.787-0.327 5.157-0.23 10.375-0.279 15.545 0.054 10.267 0.043 20.533-0.042 30.806-4.789 0.473-9.613 0.43-14.394-0.134 0.783-15.896 0.091-32.175 0.097-48.114 0-23.709 0.375-47.48-0.158-71.181l14.242-0.056c-0.279 5.289-0.212 10.632-0.291 15.93 7.714-9.629 14.151-14.271 26.332-16.955zM854.479 495.058c8.854-1.66 15.714-5.272 20.909-12.914 5.085-7.607 6.909-16.934 5.061-25.891-1.588-7.983-6.316-15.528-13.266-19.89-5.473-3.434-11.394-4.378-17.715-4.199-8.776 1.659-15.891 4.784-21.151 12.434-4.957 7.206-7.091 17.466-5.418 26.036 1.588 8.23 6.468 15.454 13.516 19.987 5.618 3.533 11.551 4.552 18.067 4.436zM582.556 383.117c2.321 2.385 3.043 8.68 4.425 12.051-14.945 6.273-36.611 4.983-48.63 16.463-7.187 6.868-8.902 16.363-9.054 25.827 6.43-7.942 13.479-14.378 24.024-16.14 10.655-1.782 21.945 0.279 30.685 6.783 9.388 6.988 14.612 17.119 16.182 28.593 1.799 13.188-1.485 25.624-9.576 36.157-5.861 6.503-12.679 11.31-21.266 13.412-10.872 2.666-23.284 1.284-32.865-4.66-10.928-6.789-17.218-17.988-19.945-30.309-4.073-18.412-3.273-45.928 7.339-62.271 9.358-14.417 23.491-17.272 39.194-21.006 6.521-1.551 12.95-3.459 19.49-4.9zM557.708 495.142c9.254-1.369 16.139-3.588 21.891-11.54 5.642-7.793 7.466-17.636 5.714-27.005-1.412-7.561-5.393-14.477-11.885-18.756-3.975-2.628-8.588-4.134-13.351-4.36-9.005 1.007-16.412 2.872-22.405 10.299-5.624 6.974-8.030 16.392-6.787 25.228 1.133 8.061 5.54 15.818 12.158 20.623 4.478 3.249 9.284 4.674 14.666 5.509zM380.053 388.853c5.262-0.528 10.736-0.275 16.027-0.312-0.714 38.738 0.138 77.589-0.085 116.347l-13.95-0.14 0.021-68.528c-0.038-7.851-0.202-15.719 0.279-23.559-12.857 23.745-24.456 48.531-38.538 71.554l-9.064-0.048c-13.871-22.739-25.413-47.241-38.239-70.607 0.502 10.716 0.163 21.597 0.171 32.328l0.030 59.006c-4.651-0.121-9.283 0.182-13.94-0.035l0.006-70.589c0.010-15.174-0.287-30.442 0.545-45.595l15.521 0.008c4.412 7.565 8.162 15.671 12.17 23.463 9.299 18.077 18.504 36.349 28.535 54.028 14.744-25 26.415-51.927 40.51-77.32zM451.808 418.861c2.129-0.114 4.259-0.195 6.391-0.242 11.169-0.183 22.298 2.864 30.35 10.957 10.772 10.826 11.844 24.47 11.846 38.889-23.249 0.297-46.529-0.019-69.782 0.085 0.717 3.836 1.439 7.508 3.264 11.011 3.635 7.006 9.942 12.249 17.494 14.54 9.039 2.74 18.131 1.133 26.262-3.351 2.728-1.855 5.222-4.024 7.761-6.121 3.65 2.085 7.344 3.824 11.2 5.49-5.737 7.739-13.132 13.382-22.493 15.945-11.985 3.279-26.592 1.994-37.387-4.358-9.466-5.581-16.258-14.768-18.814-25.453-3.19-12.848-1.408-26.901 5.564-38.202 6.719-10.893 16.149-16.276 28.346-19.189zM430.76 457.604c11.516-0.091 23.031-0.128 34.548-0.097l21.524 0.013c-2.099-8.834-4.202-17.023-12.422-22.194-6.015-3.784-13.308-4.36-20.23-3.784-7.475 1.726-13.777 5.128-18.043 11.717-2.889 4.461-4.169 9.255-5.378 14.346zM741.018 418.836c2.091-0.104 4.176-0.174 6.267-0.209 11.139-0.121 22.271 3.184 30.223 11.312 10.46 10.699 11.423 24.351 11.375 38.472-23.151 0.351-46.357 0.072-69.519 0.128 0.308 4.224 1.048 7.86 3.024 11.66 3.648 7.037 9.703 11.691 17.26 13.902 10.109 2.97 19.309 0.776 28.242-4.181 2.182-1.503 4.121-3.34 6.102-5.097 3.672 1.976 7.394 3.575 11.26 5.115-6.054 7.957-13.588 13.727-23.369 16.206-12.163 3.085-26.127 1.903-36.98-4.648-9.637-5.818-16.242-15.406-18.776-26.327-2.891-12.473-0.872-26.817 6.097-37.63 6.97-10.811 16.503-16.043 28.793-18.701zM719.236 457.574c11.024-0.030 22.060-0.181 33.084-0.066l23.364-0.013c-2.425-9.083-4.963-17.932-13.752-22.928-5.442-3.098-12.072-3.625-18.217-3.004-7.291 1.207-13.455 3.95-17.982 10.045-3.588 4.827-5.115 10.222-6.497 15.966zM981.46 420.063c14.102-0.661 28.412-0.182 42.539-0.137-0.722 28.236-0.080 56.663-0.091 84.923l-14.527-0.157-0.013-29.012c-6.939-0.042-16.078-1.399-22.696 0.176-2.067 0.491-2.436 1.533-3.594 3.139-4.903 8.698-10.358 17.091-15.279 25.793-5.49 0.121-10.987 0.14-16.478 0.043 5.375-10.091 12.672-22.933 19.787-31.672-0.848-0.412-1.685-0.848-2.509-1.297-6.206-3.425-10.95-8.933-12.77-15.842-1.89-7.203-0.86-15.423 2.995-21.818 5.193-8.628 13.327-11.945 22.635-14.139zM996.356 463.504c4.292-0.037 8.667 0.097 12.945-0.212-0.054-10.042-0.030-20.084 0.080-30.126-8.522-0.031-17.158-0.259-25.667 0.207-5.369 1.682-9.562 3.496-12.46 8.671-1.922 3.439-2.436 7.978-1.139 11.715 1.254 3.618 4.157 6.157 7.575 7.703 5.77 2.606 12.485 2.096 18.666 2.042zM629.693 420.843c18.399-0.664 36.956-0.233 55.374-0.267l-0.085 84.263c-4.588-0.067-9.195-0.26-13.746 0.364l-0.067-71.378-7.805 0.315c-6.97-0.344-14.091 0.115-21.073 0.279-0.193 16.985-0.26 52.197-12.157 64.766-5.934 6.267-12.637 6.909-20.739 6.976-0.061-4.43-0.297-8.806-0.618-13.224 2.115-0.195 4.358-0.34 6.418-0.861 12.805-3.23 13.029-45.545 13.351-56.214 0.126-4.158-0.794-11.634 1.145-15.018zM928.123 420.216l1.885-0.111c0.224 0.306 0.545 0.561 0.684 0.918 0.631 1.657-0.018 75.267-0.011 83.775l-12.34 0.085-0.909-0.181c-1.976-3.57 0.006-73.715-0.612-84.318 3.77 0.047 7.54-0.080 11.303-0.168zM916.555 388.437l14.193-0.042c-0.15 5.037-0.035 10.078 0.037 15.115l-14.612 0.11c0.212-5.059 0.339-10.12 0.382-15.183z" />
</symbol>
<symbol id="down-arrow-alt" viewBox="0 0 1024 1024">
<title>down-arrow-alt</title>
<path d="M798.165 478.165l-60.331-60.331-183.168 183.168v-409.003h-85.333v409.003l-183.169-183.168-60.331 60.331 286.167 286.165 286.165-286.165z" />
</symbol>
<symbol id="Facebook" viewBox="0 0 1024 1024">
<title>Facebook</title>
<path d="M938.667 460.962c0-237.082-191.023-429.274-426.667-429.274-235.642 0-426.667 192.192-426.667 429.274 0 214.259 156.025 391.855 360 424.060v-299.972h-108.333v-124.087h108.333v-94.575c0-107.587 63.701-167.014 161.156-167.014 46.686 0 95.509 8.384 95.509 8.384v105.642h-53.798c-53.001 0-69.534 33.093-69.534 67.043v80.521h118.332l-18.914 124.087h-99.418v299.972c203.977-32.205 360-209.792 360-424.060z" />
</symbol>
<symbol id="Favicon" viewBox="0 0 1024 1024">
<title>Favicon</title>
<path d="M477.995 78.492c210.466-19.638 396.954 135.18 416.375 345.666 19.422 210.492-135.582 396.809-346.091 416.013-210.199 19.187-396.201-135.548-415.595-345.732-19.392-210.18 135.151-396.339 345.31-415.946zM554.313 799.693c187.891-22.562 321.882-193.229 299.209-381.099-22.669-187.876-193.417-321.76-381.278-298.969-187.695 22.769-321.432 193.328-298.781 381.030 22.653 187.729 193.126 321.557 380.851 299.038zM663.236 260.28l44.023-0.301c0.858 127.063 0.917 254.129 0.192 381.19l-45.525 0.572-0.064-238.737-0.209-65.377c-25.429 48.255-54.298 94.646-81.801 141.729-17.434 29.845-33.621 64.085-55.198 90.918-5.146 1.886-10.726 2.027-16.090 0.798-1.749-0.405-5.419-1.779-6.754-2.842-11.635-9.284-121.053-201.502-138.528-230.65 4.486 34.567 1.667 72.28 1.649 107.173l-0.133 196.049-46.55 0.162c1.442-126.857-0.834-253.803 0.383-380.687l50.689 0.264c22.54 40.3 46.719 79.759 70.094 119.584 24.841 42.325 49.028 85.158 75.418 126.537 26.846-49.028 56.87-96.546 85.73-144.439 20.442-33.921 39.765-69.644 62.673-101.943z" />
</symbol>
<symbol id="Instagram" viewBox="0 0 1024 1024">
<title>Instagram</title>
<path d="M511.949 133.159c102.588 0 114.731 0.456 155.068 2.256 37.508 1.655 57.737 7.943 71.245 13.198 17.856 6.911 30.741 15.31 44.083 28.652 13.508 13.51 21.743 26.252 28.796 44.106 5.257 13.51 11.541 33.884 13.197 71.247 1.801 40.507 2.257 52.649 2.257 155.092s-0.457 114.726-2.257 155.089c-1.655 37.508-7.94 57.737-13.197 71.249-6.912 17.852-15.287 30.737-28.651 44.079-13.513 13.513-26.253 21.743-44.083 28.8-13.508 5.252-33.907 11.541-71.245 13.197-40.508 1.801-52.651 2.257-155.093 2.257s-114.728-0.457-155.091-2.257c-37.507-1.655-57.737-7.945-71.247-13.197-17.853-6.912-30.74-15.287-44.106-28.655-13.51-13.508-21.741-26.253-28.796-44.083-5.255-13.508-11.542-33.907-13.198-71.245-1.8-40.508-2.256-52.651-2.256-155.093 0-102.44 0.456-114.726 2.256-155.089 1.656-37.507 7.943-57.737 13.198-71.247 6.911-17.854 15.31-30.74 28.652-44.106 13.51-13.51 26.252-21.741 44.106-28.796 13.51-5.255 33.884-11.543 71.247-13.198 40.339-1.8 52.505-2.256 155.090-2.256h0.026zM511.949 64.024c-104.242 0-117.272 0.456-158.235 2.256-40.794 1.8-68.847 8.399-93.132 17.853-25.341 9.887-46.794 22.941-68.079 44.394-21.453 21.309-34.508 42.738-44.394 67.935-9.455 24.453-16.054 52.337-17.853 93.132-1.8 41.106-2.256 54.137-2.256 158.38 0 104.239 0.456 117.269 2.256 158.234 1.8 40.794 8.399 68.847 17.853 93.133 9.911 25.34 22.941 46.793 44.394 68.079 21.285 21.282 42.738 34.505 67.935 44.25 24.453 9.455 52.337 16.051 93.132 17.852 40.939 1.801 53.993 2.257 158.234 2.257 104.243 0 117.299-0.457 158.238-2.257 40.794-1.801 68.847-8.397 93.129-17.852 25.199-9.745 46.652-22.942 67.938-44.25 21.282-21.312 34.505-42.739 44.25-67.938 9.455-24.452 16.051-52.335 17.852-93.129 1.801-40.939 2.257-53.995 2.257-158.238 0-104.241-0.457-117.271-2.257-158.233-1.801-40.795-8.397-68.847-17.852-93.132-9.455-25.508-22.511-46.938-43.938-68.247-21.286-21.285-42.739-34.508-67.938-44.25-24.452-9.455-52.335-16.054-93.129-17.854-41.084-1.943-54.14-2.4-158.379-2.4l-0.026 0.024zM511.936 250.74c-108.871 0-197.228 88.332-197.228 197.231s88.332 197.231 197.228 197.231c108.898 0 197.231-88.333 197.231-197.231 0-108.874-88.333-197.231-197.231-197.231zM511.936 575.898c-70.643 0-127.925-57.28-127.925-127.927s57.282-127.928 127.925-127.928c70.647 0 127.927 57.28 127.927 127.928s-57.28 127.927-127.927 127.927zM762.974 242.946c0 25.437-20.612 46.050-46.050 46.050-25.434 0-46.050-20.613-46.050-46.050s20.617-46.050 46.050-46.050c25.438 0 46.050 20.613 46.050 46.050z" />
</symbol>
<symbol id="left-arrow-alt" viewBox="0 0 1024 1024">
<title>left-arrow-alt</title>
<path d="M542.161 222.165l-183.166 183.168h409.001v85.333h-409.001l183.166 183.169-60.331 60.331-286.164-286.167 286.164-286.165 60.331 60.331z" />
</symbol>
<symbol id="menu" viewBox="0 0 1024 1024">
<title>menu</title>
<path d="M170.667 704h682.667v-85.333h-682.667v85.333zM170.667 490.667h682.667v-85.333h-682.667v85.333zM170.667 277.333h682.667v-85.333h-682.667v85.333z" />
</symbol>
<symbol id="minus" viewBox="0 0 1024 1024">
<title>minus</title>
<path d="M213.333 490.667h597.333v-85.333h-597.333v85.333z" />
</symbol>
<symbol id="plus" viewBox="0 0 1024 1024">
<title>plus</title>
<path d="M810.667 490.667h-256v256h-85.333v-256h-256v-85.333h256v-256h85.333v256h256v85.333z" />
</symbol>
<symbol id="right-arrow-alt" viewBox="0 0 1024 1024">
<title>right-arrow-alt</title>
<path d="M481.835 222.165l60.331-60.331 286.165 286.165-286.165 286.167-60.331-60.331 183.168-183.169h-409.003v-85.333h409.003l-183.168-183.168z" />
</symbol>
<symbol id="star" viewBox="0 0 1024 1024">
<title>star</title>
<path d="M278.017 547.115l-63.573 275.285c-1.969 8.337-1.378 17.071 1.696 25.067s8.486 14.878 15.532 19.746c7.045 4.873 15.396 7.505 23.961 7.556s16.946-2.483 24.049-7.27l232.319-154.88 232.32 154.88c7.27 4.826 15.838 7.309 24.563 7.117 8.721-0.188 17.173-3.046 24.222-8.188 7.049-5.137 12.356-12.314 15.206-20.557 2.85-8.247 3.106-17.165 0.734-25.562l-78.037-273.067 193.536-174.165c6.199-5.581 10.628-12.857 12.732-20.928 2.108-8.070 1.805-16.582-0.875-24.481s-7.612-14.84-14.195-19.964c-6.579-5.124-14.519-8.207-22.835-8.867l-243.243-19.371-105.259-233.003c-3.354-7.503-8.811-13.873-15.71-18.344-6.895-4.47-14.938-6.849-23.159-6.849-8.218 0-16.26 2.379-23.159 6.849-6.895 4.471-12.352 10.842-15.71 18.344l-105.257 233.003-243.243 19.328c-8.173 0.648-15.986 3.636-22.505 8.607s-11.467 11.716-14.253 19.426c-2.786 7.71-3.292 16.060-1.457 24.050s5.933 15.283 11.804 21.004l179.797 175.232zM399.745 362.539c7.616-0.6 14.93-3.238 21.175-7.636s11.194-10.397 14.322-17.366l76.757-169.856 76.757 169.856c3.132 6.969 8.077 12.967 14.323 17.366s13.559 7.037 21.175 7.636l169.472 13.44-139.563 125.611c-12.117 10.923-16.939 27.733-12.501 43.435l53.461 187.093-159.403-106.283c-6.997-4.698-15.232-7.202-23.659-7.202s-16.661 2.505-23.659 7.202l-166.569 111.061 44.8-193.963c1.643-7.134 1.422-14.571-0.64-21.594s-5.897-13.402-11.136-18.513l-129.621-126.379 174.507-13.909z" />
</symbol>
<symbol id="up-arrow-alt" viewBox="0 0 1024 1024">
<title>up-arrow-alt</title>
<path d="M469.333 294.995v409.001h85.333v-409.001l183.168 183.166 60.331-60.331-286.165-286.164-286.167 286.164 60.331 60.331 183.169-183.166z" />
</symbol>
<symbol id="Youtube" viewBox="0 0 1024 1024">
<title>Youtube</title>
<path d="M921.314 652.672c-4.86 18.031-14.357 34.475-27.546 47.694s-29.611 22.755-47.633 27.655c-66.816 18.347-334.123 18.645-334.123 18.645s-267.263 0.299-334.121-17.237c-18.009-5.126-34.397-14.796-47.592-28.080s-22.753-29.738-27.758-47.781c-17.621-66.816-17.792-205.397-17.792-205.397s-0.171-139.264 17.323-205.397c9.813-36.565 38.613-65.451 75.221-75.307 67.499-18.347 334.079-18.645 334.079-18.645s267.307-0.299 334.123 17.195c18.027 4.894 34.466 14.404 47.689 27.597s22.771 29.611 27.703 47.625c17.664 66.773 17.792 205.312 17.792 205.312s0.853 139.306-17.365 206.122zM426.51 319.787l0.212 256 222.165-128.213-222.377-127.787z" />
</symbol>
</svg>