<!-- Generated by IcoMoon.io -->
<svg version="1.1" xmlns="http://www.w3.org/2000/svg" width="32" height="32" viewBox="0 0 32 32">
<path d="M15.982 24.061c-4.455 0-8.079-3.624-8.079-8.079s3.624-8.079 8.079-8.079c4.455 0 8.079 3.624 8.079 8.079s-3.624 8.079-8.079 8.079z"></path>
<path d="M13.752 6.361c-0.103 0-0.201-0.045-0.269-0.125-0.084-0.1-0.106-0.238-0.057-0.359l2.23-5.483c0.054-0.132 0.182-0.219 0.325-0.219s0.272 0.087 0.325 0.219l2.23 5.483c0.049 0.121 0.027 0.259-0.057 0.359s-0.216 0.145-0.344 0.117c-1.421-0.309-2.89-0.309-4.31 0-0.025 0.006-0.050 0.008-0.074 0.008z"></path>
<path d="M15.982 31.788c-0.143 0-0.272-0.086-0.325-0.219l-2.23-5.483c-0.049-0.121-0.027-0.259 0.057-0.359s0.216-0.145 0.344-0.117c1.42 0.31 2.889 0.31 4.31 0 0.128-0.028 0.26 0.018 0.344 0.117s0.106 0.238 0.057 0.359l-2.23 5.483c-0.054 0.132-0.183 0.219-0.326 0.219z"></path>
<path d="M6.010 18.563c-0.045 0-0.090-0.008-0.132-0.026l-5.483-2.23c-0.132-0.054-0.219-0.183-0.219-0.326s0.087-0.272 0.219-0.325l5.483-2.23c0.12-0.049 0.259-0.027 0.359 0.057s0.145 0.216 0.117 0.344c-0.155 0.71-0.234 1.435-0.234 2.155s0.079 1.445 0.234 2.155c0.028 0.127-0.017 0.26-0.117 0.344-0.065 0.054-0.145 0.083-0.227 0.083z"></path>
<path d="M25.954 18.563c-0.081 0-0.162-0.028-0.226-0.083-0.1-0.084-0.145-0.216-0.117-0.344 0.155-0.71 0.233-1.436 0.233-2.155s-0.079-1.445-0.233-2.155c-0.028-0.127 0.017-0.26 0.117-0.344s0.237-0.106 0.359-0.057l5.483 2.23c0.132 0.054 0.219 0.182 0.219 0.325s-0.086 0.272-0.219 0.325l-5.483 2.23c-0.043 0.017-0.088 0.026-0.132 0.026z"></path>
<path d="M7.354 10.859c-0.010 0-0.020-0-0.030-0.001-0.13-0.011-0.243-0.093-0.294-0.213l-2.3-5.454c-0.056-0.132-0.026-0.284 0.075-0.385s0.254-0.13 0.385-0.075l5.454 2.3c0.12 0.051 0.202 0.164 0.213 0.293s-0.051 0.255-0.16 0.326c-0.612 0.393-1.18 0.85-1.689 1.359s-0.966 1.077-1.359 1.689c-0.065 0.101-0.177 0.162-0.295 0.162z"></path>
<path d="M26.91 27.261c-0.046 0-0.092-0.009-0.137-0.027l-5.454-2.3c-0.12-0.051-0.202-0.164-0.213-0.294s0.051-0.255 0.16-0.326c0.613-0.394 1.181-0.851 1.689-1.359v0c0.508-0.507 0.965-1.076 1.359-1.689 0.071-0.11 0.194-0.172 0.326-0.16 0.13 0.011 0.243 0.093 0.294 0.213l2.3 5.454c0.055 0.132 0.026 0.284-0.076 0.385-0.067 0.068-0.157 0.103-0.249 0.103z"></path>
<path d="M24.61 10.859c-0.119 0-0.23-0.060-0.296-0.161-0.394-0.613-0.851-1.181-1.359-1.689v0c-0.508-0.508-1.077-0.966-1.689-1.359-0.11-0.070-0.171-0.196-0.16-0.326s0.093-0.243 0.213-0.293l5.454-2.3c0.131-0.056 0.284-0.026 0.385 0.075s0.131 0.253 0.076 0.385l-2.3 5.454c-0.051 0.12-0.164 0.202-0.294 0.213-0.010 0.001-0.020 0.001-0.030 0.001z"></path>
<path d="M5.054 27.261c-0.091 0-0.181-0.036-0.248-0.103-0.101-0.101-0.131-0.253-0.075-0.385l2.3-5.454c0.051-0.12 0.164-0.202 0.293-0.213 0.13-0.015 0.255 0.051 0.326 0.16 0.393 0.612 0.85 1.18 1.359 1.689v0c0.508 0.508 1.076 0.965 1.689 1.359 0.11 0.071 0.171 0.196 0.16 0.326s-0.093 0.243-0.213 0.294l-5.454 2.3c-0.044 0.018-0.090 0.027-0.137 0.027z"></path>
</svg>
