<svg width="21" height="21" viewBox="0 0 21 21" fill="none" xmlns="http://www.w3.org/2000/svg">
  <path fill-rule="evenodd" clip-rule="evenodd" d="M20.3928 8.27026L20.4725 8.53341C20.5381 8.73203 20.4829 8.95278 20.3329 9.0913L15.4863 13.4597L16.9223 20.007C16.9709 20.2162 16.8963 20.4359 16.7328 20.5649L16.5134 20.7228C16.4282 20.7933 16.3225 20.8304 16.2143 20.828C16.1229 20.83 16.033 20.8044 15.955 20.7543L10.5 17.2491L5.07494 20.7543C4.99694 20.8044 4.90697 20.83 4.81565 20.828C4.7074 20.8304 4.60169 20.7933 4.51648 20.7228L4.26716 20.5649C4.10366 20.4359 4.02906 20.2162 4.07768 20.007L5.51373 13.4597L0.677039 9.10183C0.519309 8.96412 0.459604 8.73725 0.527451 8.53341L0.637149 8.27026C0.695477 8.06228 0.870839 7.91505 1.07594 7.90184L7.44841 7.36501L9.89169 1.16508C9.96998 0.959183 10.1602 0.825329 10.3704 0.828242H10.6296C10.8379 0.823577 11.0261 0.958817 11.0983 1.16508L13.5815 7.36501L19.954 7.90184C20.1591 7.91505 20.3344 8.06228 20.3928 8.27026ZM14.6087 17.7333L13.4918 12.8071L17.1517 9.51235L12.3549 9.11235L10.5 4.41767V15.0912L14.6087 17.7333Z"/>
</svg>