<svg width="21" height="21" viewBox="0 0 21 21" fill="none" xmlns="http://www.w3.org/2000/svg">
<path d="M9.57075 1.47649C9.91449 0.612003 11.0853 0.612004 11.429 1.47649L13.4578 6.57884C13.6028 6.94328 13.9304 7.19229 14.3065 7.22384L19.5726 7.66545C20.4648 7.74027 20.8266 8.90496 20.1468 9.51407L16.1347 13.1091C15.8481 13.3659 15.7229 13.7688 15.8104 14.1527L17.0362 19.528C17.2439 20.4387 16.2968 21.1586 15.5329 20.6706L11.0244 17.79C10.7024 17.5842 10.2974 17.5842 9.97535 17.79L5.46685 20.6706C4.70297 21.1586 3.75581 20.4387 3.96349 19.528L5.18928 14.1527C5.27684 13.7688 5.15168 13.3659 4.86511 13.1091L0.85291 9.51407C0.173129 8.90496 0.534915 7.74027 1.42714 7.66545L6.69322 7.22384C7.06936 7.19229 7.39702 6.94328 7.54193 6.57884L9.57075 1.47649Z" fill="#080C09"/>
</svg>
